<mxfile host="app.diagrams.net" modified="2020-12-09T05:44:58.421Z" agent="5.0 (Windows NT 10.0; Win64; x64) AppleWebKit/537.36 (KHTML, like Gecko) Chrome/86.0.4240.198 Safari/537.36" etag="Mdq4_aLbplu4-QEaV_kc" version="13.11.0" type="github">
  <diagram id="79zV9epRSB7rAZf0mFq5" name="Page-1">
    <mxGraphModel dx="1185" dy="-1703" grid="1" gridSize="10" guides="1" tooltips="1" connect="1" arrows="1" fold="1" page="1" pageScale="1" pageWidth="827" pageHeight="1169" math="0" shadow="0">
      <root>
        <mxCell id="0" />
        <mxCell id="1" parent="0" />
        <mxCell id="RRRtHtHykmKqdJRV3gpE-558" style="edgeStyle=orthogonalEdgeStyle;rounded=0;orthogonalLoop=1;jettySize=auto;html=1;strokeColor=#808080;" edge="1" parent="1" source="RRRtHtHykmKqdJRV3gpE-551" target="RRRtHtHykmKqdJRV3gpE-550">
          <mxGeometry relative="1" as="geometry">
            <Array as="points">
              <mxPoint x="802" y="2850" />
              <mxPoint x="586" y="2850" />
            </Array>
          </mxGeometry>
        </mxCell>
        <mxCell id="RRRtHtHykmKqdJRV3gpE-575" style="edgeStyle=orthogonalEdgeStyle;rounded=0;orthogonalLoop=1;jettySize=auto;html=1;entryX=-0.021;entryY=0.589;entryDx=0;entryDy=0;entryPerimeter=0;strokeColor=#808080;" edge="1" parent="1" source="RRRtHtHykmKqdJRV3gpE-551" target="RRRtHtHykmKqdJRV3gpE-547">
          <mxGeometry relative="1" as="geometry" />
        </mxCell>
        <mxCell id="RRRtHtHykmKqdJRV3gpE-551" value="app services" style="rounded=0;whiteSpace=wrap;html=1;fillColor=#f5f5f5;strokeColor=none;fontColor=#333333;verticalAlign=top;" vertex="1" parent="1">
          <mxGeometry x="771.45" y="2660.75" width="320" height="160" as="geometry" />
        </mxCell>
        <mxCell id="RRRtHtHykmKqdJRV3gpE-567" style="edgeStyle=orthogonalEdgeStyle;rounded=0;orthogonalLoop=1;jettySize=auto;html=1;strokeColor=#808080;" edge="1" parent="1" source="RRRtHtHykmKqdJRV3gpE-550" target="RRRtHtHykmKqdJRV3gpE-551">
          <mxGeometry relative="1" as="geometry">
            <Array as="points">
              <mxPoint x="612" y="2870" />
              <mxPoint x="822" y="2870" />
            </Array>
          </mxGeometry>
        </mxCell>
        <mxCell id="RRRtHtHykmKqdJRV3gpE-550" value="static resources services" style="rounded=0;whiteSpace=wrap;html=1;fillColor=#f5f5f5;strokeColor=none;fontColor=#333333;verticalAlign=top;" vertex="1" parent="1">
          <mxGeometry x="465" y="2902.25" width="241.5" height="118.5" as="geometry" />
        </mxCell>
        <mxCell id="RRRtHtHykmKqdJRV3gpE-563" style="edgeStyle=orthogonalEdgeStyle;rounded=0;orthogonalLoop=1;jettySize=auto;html=1;strokeColor=#808080;" edge="1" parent="1" source="RRRtHtHykmKqdJRV3gpE-530" target="RRRtHtHykmKqdJRV3gpE-551">
          <mxGeometry relative="1" as="geometry">
            <Array as="points">
              <mxPoint x="722" y="2741" />
              <mxPoint x="722" y="2741" />
            </Array>
          </mxGeometry>
        </mxCell>
        <mxCell id="RRRtHtHykmKqdJRV3gpE-566" style="edgeStyle=orthogonalEdgeStyle;rounded=0;orthogonalLoop=1;jettySize=auto;html=1;strokeColor=#808080;" edge="1" parent="1" source="RRRtHtHykmKqdJRV3gpE-530" target="RRRtHtHykmKqdJRV3gpE-550">
          <mxGeometry relative="1" as="geometry">
            <Array as="points">
              <mxPoint x="532" y="2840" />
              <mxPoint x="532" y="2840" />
            </Array>
          </mxGeometry>
        </mxCell>
        <mxCell id="RRRtHtHykmKqdJRV3gpE-530" value="stream server" style="rounded=0;whiteSpace=wrap;html=1;fillColor=#f5f5f5;strokeColor=none;fontColor=#333333;verticalAlign=top;" vertex="1" parent="1">
          <mxGeometry x="464" y="2660" width="241.5" height="160" as="geometry" />
        </mxCell>
        <mxCell id="RRRtHtHykmKqdJRV3gpE-553" style="edgeStyle=orthogonalEdgeStyle;rounded=0;orthogonalLoop=1;jettySize=auto;html=1;strokeColor=#808080;" edge="1" parent="1" source="RRRtHtHykmKqdJRV3gpE-524" target="RRRtHtHykmKqdJRV3gpE-530">
          <mxGeometry relative="1" as="geometry" />
        </mxCell>
        <mxCell id="RRRtHtHykmKqdJRV3gpE-524" value="Live Source" style="shape=image;verticalLabelPosition=bottom;labelBackgroundColor=#ffffff;verticalAlign=top;aspect=fixed;imageAspect=0;image=data:image/svg+xml,PHN2ZyB4bWxuczpjYz0iaHR0cDovL2NyZWF0aXZlY29tbW9ucy5vcmcvbnMjIiB4bWxuczpkYz0iaHR0cDovL3B1cmwub3JnL2RjL2VsZW1lbnRzLzEuMS8iIHhtbG5zOmlua3NjYXBlPSJodHRwOi8vd3d3Lmlua3NjYXBlLm9yZy9uYW1lc3BhY2VzL2lua3NjYXBlIiB4bWxuczpyZGY9Imh0dHA6Ly93d3cudzMub3JnLzE5OTkvMDIvMjItcmRmLXN5bnRheC1ucyMiIHhtbG5zOnNvZGlwb2RpPSJodHRwOi8vc29kaXBvZGkuc291cmNlZm9yZ2UubmV0L0RURC9zb2RpcG9kaS0wLmR0ZCIgeG1sbnM6c3ZnPSJodHRwOi8vd3d3LnczLm9yZy8yMDAwL3N2ZyIgeG1sbnM9Imh0dHA6Ly93d3cudzMub3JnLzIwMDAvc3ZnIiB4bWxuczp4bGluaz0iaHR0cDovL3d3dy53My5vcmcvMTk5OS94bGluayIgdmVyc2lvbj0iMS4xIiBpZD0ic3ZnNDYyMjYiIGlua3NjYXBlOnZlcnNpb249IjAuOTIuMyAoMjQwNTU0NiwgMjAxOC0wMy0xMSkiIHNvZGlwb2RpOmRvY25hbWU9ImNhbWVyYS5zdmciIHg9IjBweCIgeT0iMHB4IiB2aWV3Qm94PSIwIDAgNDYuNzggMzUuMTEiIHN0eWxlPSJlbmFibGUtYmFja2dyb3VuZDpuZXcgMCAwIDQ2Ljc4IDM1LjExOyIgeG1sOnNwYWNlPSJwcmVzZXJ2ZSI+JiN4YTs8c29kaXBvZGk6bmFtZWR2aWV3IGJvcmRlcmNvbG9yPSIjNjY2NjY2IiBib3JkZXJvcGFjaXR5PSIxIiBmaXQtbWFyZ2luLWJvdHRvbT0iMCIgZml0LW1hcmdpbi1sZWZ0PSIwIiBmaXQtbWFyZ2luLXJpZ2h0PSIwIiBmaXQtbWFyZ2luLXRvcD0iMCIgZ3JpZHRvbGVyYW5jZT0iMTAiIGd1aWRldG9sZXJhbmNlPSIxMCIgaWQ9Im5hbWVkdmlldzQ2MjI4IiBpbmtzY2FwZTpjdXJyZW50LWxheWVyPSJzdmc0NjIyNiIgaW5rc2NhcGU6Y3g9IjMxLjE4Mzc3NyIgaW5rc2NhcGU6Y3k9IjIzLjQwNTI0OSIgaW5rc2NhcGU6cGFnZW9wYWNpdHk9IjAiIGlua3NjYXBlOnBhZ2VzaGFkb3c9IjIiIGlua3NjYXBlOndpbmRvdy1oZWlnaHQ9IjEwMTciIGlua3NjYXBlOndpbmRvdy1tYXhpbWl6ZWQ9IjEiIGlua3NjYXBlOndpbmRvdy13aWR0aD0iMTkyMCIgaW5rc2NhcGU6d2luZG93LXg9Ii04IiBpbmtzY2FwZTp3aW5kb3cteT0iLTgiIGlua3NjYXBlOnpvb209IjE4LjUxOTI1OSIgb2JqZWN0dG9sZXJhbmNlPSIxMCIgcGFnZWNvbG9yPSIjZmZmZmZmIiBzaG93Z3JpZD0iZmFsc2UiPiYjeGE7CTwvc29kaXBvZGk6bmFtZWR2aWV3PiYjeGE7PGcgaWQ9Imc0NjIyNCI+JiN4YTsJPHRpdGxlIGlkPSJ0aXRsZTQ2MjE3Ij5QYWdlLTE8L3RpdGxlPiYjeGE7CTxnIGlkPSJzaGFwZTEwOC0xIj4mI3hhOwkJPHRpdGxlIGlkPSJ0aXRsZTQ2MjE5Ij5DYW1lcmE8L3RpdGxlPiYjeGE7CQk8cGF0aCBpZD0icGF0aDQ2MjIxIiBpbmtzY2FwZTpjb25uZWN0b3ItY3VydmF0dXJlPSIwIiBzdHlsZT0iZmlsbDojM0Y1NzY1OyIgZD0iTTQ2Ljc4LDEzLjUzYzAsMjAuMTIsMCwyMC4xMiwwLDIwLjEyICAgIGMwLDAuNzMtMC43NCwxLjQ2LTEuODMsMC43M2MtNC4zOS0zLjY2LTQuMzktMy42Ni00LjM5LTMuNjZjMC0wLjczLTEuMDktMC43My0xLjA5LTEuODNjLTEuODMsMC0xLjgzLDAtMS44MywwICAgIGMwLDQuNzYsMCw0Ljc2LDAsNC43NmMwLDAuNzMtMC43MywxLjQ2LTEuODMsMS40NmMtMjkuMjMsMC0yOS4yMywwLTI5LjIzLDBjLTAuNzMsMC0xLjgzLTAuNzMtMS44My0xLjQ2YzAtMTcuMTksMC0xNy4xOSwwLTE3LjE5ICAgIGMwLTEuODMsMS4xLTIuOTMsMS44My0yLjkzYzI5LjIzLDAsMjkuMjMsMCwyOS4yMywwYzEuMSwwLDEuODMsMS4xLDEuODMsMi45M3MwLDEuODMsMCwxLjgzYzEuODMsMCwxLjgzLDAsMS44MywwbDEuMDktMS4xICAgIGM0LjM5LTQuMzksNC4zOS00LjM5LDQuMzktNC4zOUM0Ni4wNCwxMi44LDQ2Ljc4LDEyLjgsNDYuNzgsMTMuNTN6IE0xLjgzLDE0LjYzQzEuMSwxNC42MywwLDE1LjM2LDAsMTYuNDZjMCw2LjIyLDAsNi4yMiwwLDYuMjIgICAgYzAsMC43MywxLjEsMS44MywxLjgzLDEuODNjMS4wOSwwLDIuMTktMS4xLDIuMTktMS44M2MwLTYuMjIsMC02LjIyLDAtNi4yMkM0LjAyLDE1LjM2LDIuOTIsMTQuNjMsMS44MywxNC42M3ogTTI4LjUsMTIuOCAgICBjMy42NiwwLDYuNTgtMi41Niw2LjU4LTYuMjJDMzUuMDgsMi45MywzMi4xNiwwLDI4LjUsMGMtMy42NSwwLTcuMywyLjkzLTcuMyw2LjU4QzIxLjIsMTAuMjQsMjQuODUsMTIuOCwyOC41LDEyLjh6IE0xMy44OSwxMi44ICAgIGMzLjY1LDAsNi41Ny0yLjU2LDYuNTctNi4yMmMwLTMuNjUtMi45Mi02LjU4LTYuNTctNi41OGMtMy42NiwwLTcuMzEsMi45My03LjMxLDYuNThDNi41OCwxMC4yNCwxMC4yMywxMi44LDEzLjg5LDEyLjh6Ii8+JiN4YTsJPC9nPiYjeGE7PC9nPiYjeGE7PC9zdmc+;" vertex="1" parent="1">
          <mxGeometry x="352" y="2718.75" width="56.67" height="42.5" as="geometry" />
        </mxCell>
        <mxCell id="RRRtHtHykmKqdJRV3gpE-529" value="Encoder" style="shape=image;verticalLabelPosition=bottom;labelBackgroundColor=#ffffff;verticalAlign=top;aspect=fixed;imageAspect=0;image=data:image/svg+xml,PHN2ZyB4bWxuczpjYz0iaHR0cDovL2NyZWF0aXZlY29tbW9ucy5vcmcvbnMjIiB4bWxuczpkYz0iaHR0cDovL3B1cmwub3JnL2RjL2VsZW1lbnRzLzEuMS8iIHhtbG5zOmlua3NjYXBlPSJodHRwOi8vd3d3Lmlua3NjYXBlLm9yZy9uYW1lc3BhY2VzL2lua3NjYXBlIiB4bWxuczpyZGY9Imh0dHA6Ly93d3cudzMub3JnLzE5OTkvMDIvMjItcmRmLXN5bnRheC1ucyMiIHhtbG5zOnNvZGlwb2RpPSJodHRwOi8vc29kaXBvZGkuc291cmNlZm9yZ2UubmV0L0RURC9zb2RpcG9kaS0wLmR0ZCIgeG1sbnM6c3ZnPSJodHRwOi8vd3d3LnczLm9yZy8yMDAwL3N2ZyIgeG1sbnM9Imh0dHA6Ly93d3cudzMub3JnLzIwMDAvc3ZnIiB4bWxuczp4bGluaz0iaHR0cDovL3d3dy53My5vcmcvMTk5OS94bGluayIgdmVyc2lvbj0iMS4xIiBpZD0ic3ZnNTQ2MTgiIGlua3NjYXBlOnZlcnNpb249IjAuOTIuMyAoMjQwNTU0NiwgMjAxOC0wMy0xMSkiIHNvZGlwb2RpOmRvY25hbWU9ImVuY29kaW5nLnN2ZyIgeD0iMHB4IiB5PSIwcHgiIHZpZXdCb3g9IjAgMCAyMi44MiAyMS41OCIgc3R5bGU9ImVuYWJsZS1iYWNrZ3JvdW5kOm5ldyAwIDAgMjIuODIgMjEuNTg7IiB4bWw6c3BhY2U9InByZXNlcnZlIj4mI3hhOzxzb2RpcG9kaTpuYW1lZHZpZXcgYm9yZGVyY29sb3I9IiM2NjY2NjYiIGJvcmRlcm9wYWNpdHk9IjEiIGZpdC1tYXJnaW4tYm90dG9tPSIwIiBmaXQtbWFyZ2luLWxlZnQ9IjAiIGZpdC1tYXJnaW4tcmlnaHQ9IjAiIGZpdC1tYXJnaW4tdG9wPSIwIiBncmlkdG9sZXJhbmNlPSIxMCIgZ3VpZGV0b2xlcmFuY2U9IjEwIiBpZD0ibmFtZWR2aWV3NTQ2MjAiIGlua3NjYXBlOmN1cnJlbnQtbGF5ZXI9InN2ZzU0NjE4IiBpbmtzY2FwZTpjeD0iMTEuMjk4ODY0IiBpbmtzY2FwZTpjeT0iLTEuMDQxNTI5MSIgaW5rc2NhcGU6cGFnZW9wYWNpdHk9IjAiIGlua3NjYXBlOnBhZ2VzaGFkb3c9IjIiIGlua3NjYXBlOndpbmRvdy1oZWlnaHQ9IjEwMTciIGlua3NjYXBlOndpbmRvdy1tYXhpbWl6ZWQ9IjEiIGlua3NjYXBlOndpbmRvdy13aWR0aD0iMTkyMCIgaW5rc2NhcGU6d2luZG93LXg9Ii04IiBpbmtzY2FwZTp3aW5kb3cteT0iLTgiIGlua3NjYXBlOnpvb209IjEwLjY1MzgzNiIgb2JqZWN0dG9sZXJhbmNlPSIxMCIgcGFnZWNvbG9yPSIjZmZmZmZmIiBzaG93Z3JpZD0iZmFsc2UiPiYjeGE7CTwvc29kaXBvZGk6bmFtZWR2aWV3PiYjeGE7PGcgaWQ9Imc1NDYxNiIgdHJhbnNmb3JtPSJ0cmFuc2xhdGUoLTIuNzQwNjUzNWUtNSwwLjAwMzE0NTc0KSI+JiN4YTsJPHRpdGxlIGlkPSJ0aXRsZTU0NjA5Ij5QYWdlLTE8L3RpdGxlPiYjeGE7CTxnIGlkPSJzaGFwZTMwODQtMSI+JiN4YTsJCTx0aXRsZSBpZD0idGl0bGU1NDYxMSI+RW5jb2Rpbmc8L3RpdGxlPiYjeGE7CQk8cGF0aCBpZD0icGF0aDU0NjEzIiBpbmtzY2FwZTpjb25uZWN0b3ItY3VydmF0dXJlPSIwIiBzdHlsZT0iZmlsbDojM0Y1NzY1OyIgZD0iTTIyLjgyLDEzLjMxYzAtMC44NSwwLTQuNzktMC4wOC04LjY3ICAgIGMwLTIuNDQtMi4zNC00Ljc0LTUuODctNC42NEMxNi4zMiwwLDgsMC4wNyw4LDAuMDdDNi45OSwwLjE1LDYuODQsMC45NCw2Ljg0LDEuMzNzMCwwLjA3LDAsMC42M2MwLDAuNDgsMC41MywwLjg3LDEuMDksMC45NCAgICBjMCwwLDAsMCwwLDAuMWMwLDAuMDcsMCwwLjA3LDAuMDcsMC4xNEM3LjU0LDMuNyw3LjU0LDMuNyw3LjU0LDMuN2MwLDAuNjMsMCwwLjYzLDAsMC42M2MtNC40LDAtNC40LDAtNC40LDAgICAgYzAsMi44MywwLDIuODMsMCwyLjgzQzAsNy4xNiwwLDcuMTYsMCw3LjE2YzAsMy44LDAsMy44LDAsMy44YzE2LjI0LDAsMTYuMjQsMCwxNi4yNCwwYzAtMy44LDAtMy44LDAtMy44Yy0yLjIsMC0yLjIsMC0yLjIsMCAgICBjMC0yLjgzLDAtMi44MywwLTIuODNjLTMuOTgsMC0zLjk4LDAtMy45OCwwYzAtMC41NiwwLTAuNTYsMC0wLjU2QzkuNTcsMy4xNCw5LjU3LDMuMTQsOS41NywzLjE0YzAtMC4wNywwLjA3LTAuMDcsMC4wNy0wLjE0ICAgIGMwLTAuMSwwLTAuMS0wLjA3LTAuMTdjMi4xMywwLDUuNTktMC4wNyw2LjIxLTAuMDdjMy41MSwwLDMuODIsMS40LDMuODIsMi4zN2MwLDAuODUsMC4xLDYuMjIsMC4xLDguMzQgICAgYzAuMDcsMi4wNi0zLjIyLDIuMDYtMy44NCwyLjA2Yy0wLjM5LDAtNC4zMywwLTYuMjIsMC4wN2wtMC4wNy0wLjA3Yy0wLjE0LDAtMC4xNCwwLTAuMTQsMGMwLTAuMSwwLTAuMSwwLTAuMSAgICBjMC4xNC0wLjA3LDAuMTQtMC4wNywwLjE0LTAuMDdoMC4wN2MwLTAuMDctMC4wNy0wLjA3LTAuMDctMC4wN2MtMC4xNCwwLTAuMTQsMC0wLjE0LDBjMC0wLjE3LDAtMC4xNywwLTAuMTcgICAgYzAuMTQsMCwwLjE0LDAsMC4xNCwwczAuMDcsMCwwLjA3LTAuMDdIOS41N2MtMC4xNCwwLTAuMTQsMC0wLjE0LDBjMC0wLjE1LDAtMC4xNSwwLTAuMTVjMC4xNCwwLDAuMTQsMCwwLjE0LDBzMC4wNywwLDAuMDctMC4wOSAgICBIOS41N2MtMC4xNCwwLTAuMTQsMC0wLjE0LDBjMC0wLjE1LDAtMC4xNSwwLTAuMTVjMC4xNCwwLDAuMTQsMCwwLjE0LDBsMC4wNy0wLjFsLTAuMDctMC4wN2MtMC4xNCwwLTAuMTQsMC0wLjE0LDAgICAgYzAtMC4xNCwwLTAuMTQsMC0wLjE0YzAuMTQsMCwwLjE0LDAsMC4xNCwwaDAuMDdjMC0wLjEtMC4wNy0wLjEtMC4wNy0wLjFjLTAuMTQsMC0wLjE0LDAtMC4xNCwwQzkuMzUsMTQuMSw5LjM1LDE0LjEsOS4zNSwxNC4xICAgIGMwLjIyLDAsMC4yMiwwLDAuMjIsMHMwLjA3LDAsMC4wNy0wLjA3Yy0wLjA3LDAtMC4wNywwLTAuMDcsMGMtMC4yMiwwLTAuMjIsMC0wLjIyLDBjMC0wLjE3LDAtMC4xNywwLTAuMTdjMC4yMiwwLDAuMjIsMCwwLjIyLDAgICAgdi0wLjA3di0wLjA3Yy0wLjIyLDAtMC4yMiwwLTAuMjIsMGMwLTAuMTcsMC0wLjE3LDAtMC4xN2MwLjIyLDAsMC4yMiwwLDAuMjIsMGwwLDBjMC0wLjA4LDAtMC4wOCwwLTAuMDhjLTAuMjIsMC0wLjIyLDAtMC4yMiwwICAgIGMwLTAuMTYsMC0wLjE2LDAtMC4xNmMwLjIyLDAsMC4yMiwwLDAuMjIsMHMwLDAsMC0wLjA4bDAsMGMtMC4yMiwwLTAuMjIsMC0wLjIyLDBjMC0wLjE0LDAtMC4xNCwwLTAuMTRjMC4yMiwwLDAuMjIsMCwwLjIyLDAgICAgdi0wLjF2LTAuMDdjLTAuMjIsMC0wLjIyLDAtMC4yMiwwYzAtMC4xNSwwLTAuMTUsMC0wLjE1YzAuMjIsMCwwLjIyLDAsMC4yMiwwbDAsMGMwLTAuMDksMC0wLjA5LDAtMC4wOWMtMC4yMiwwLTAuMjIsMC0wLjIyLDAgICAgYzAtMC4wOCwwLTAuMDgsMC0wLjA4YzAuMjIsMCwwLjIyLDAsMC4yMiwwYzAuMDcsMCwwLjE3LTAuMDcsMC4xNy0wLjE0YzAtMC4xLDAtMC4xLTAuMS0wLjE3YzAuNDktMC41NiwwLjQ5LTAuNTYsMC40OS0wLjU2ICAgIGMwLTAuNzcsMC0wLjc3LDAtMC43N2MtMi41MiwwLTIuNTIsMC0yLjUyLDBjMCwwLjcsMCwwLjcsMCwwLjdjMC40OSwwLjcsMC40OSwwLjcsMC40OSwwLjdjLTAuMSwwLTAuMSwwLjEtMC4xLDAuMSAgICBjMCwwLjE0LDAuMSwwLjE0LDAuMTcsMC4xNHMwLjA3LDAsMC4wNywwYzAsMC4wOCwwLDAuMDgsMCwwLjA4Yy0wLjE0LDAtMC4xNCwwLTAuMTQsMHYwLjA5djAuMDhjMC4xNCwwLDAuMTQsMCwwLjE0LDAgICAgYzAsMC4xNCwwLDAuMTQsMCwwLjE0Yy0wLjE0LDAtMC4xNCwwLTAuMTQsMGwwLDBjMCwwLjEsMCwwLjEsMCwwLjFjMC4xNCwwLDAuMTQsMCwwLjE0LDBjMCwwLjE0LDAsMC4xNCwwLDAuMTQgICAgYy0wLjE0LDAtMC4xNCwwLTAuMTQsMHMwLDAsMCwwLjA4bDAsMGMwLjE0LDAsMC4xNCwwLDAuMTQsMGMwLDAuMTYsMCwwLjE2LDAsMC4xNmMtMC4xNCwwLTAuMTQsMC0wLjE0LDB2MC4wOHYwLjA3ICAgIGMwLjE0LDAsMC4xNCwwLDAuMTQsMGMwLDAuMTcsMCwwLjE3LDAsMC4xN2MtMC4xNCwwLTAuMTQsMC0wLjE0LDBsMCwwYzAsMC4wNywwLDAuMDcsMC4wNywwLjA3czAuMDcsMCwwLjA3LDAgICAgYzAsMC4xNywwLDAuMTcsMCwwLjE3Yy0wLjA3LDAtMC4wNywwLTAuMDcsMGMtMC4wNywwLTAuMDcsMC0wLjA3LDAuMDdjMCwwLDAsMCwwLjA3LDBzMC4wNywwLDAuMDcsMGMwLDAuMTUsMCwwLjE1LDAsMC4xNSAgICBjLTAuMDcsMC0wLjA3LDAtMC4wNywwYy0wLjA3LDAtMC4wNywwLTAuMDcsMC4xYzAsMCwwLDAsMC4wNywwczAuMDcsMCwwLjA3LDBjMCwwLjE0LDAsMC4xNCwwLDAuMTRjLTAuMDcsMC0wLjA3LDAtMC4wNywwICAgIGMtMC4wNywwLTAuMDcsMC4wNy0wLjA3LDAuMDdjMCwwLjEsMCwwLjEsMC4wNywwLjFzMC4wNywwLDAuMDcsMGMwLDAuMTUsMCwwLjE1LDAsMC4xNWMtMC4wNywwLTAuMDcsMC0wLjA3LDAgICAgYy0wLjA3LDAtMC4wNywwLTAuMDcsMGMwLDAuMDksMCwwLjA5LDAuMDcsMC4wOXMwLjA3LDAsMC4wNywwYzAsMC4xNSwwLDAuMTUsMCwwLjE1Yy0wLjA3LDAtMC4wNywwLTAuMDcsMCAgICBjLTAuMDcsMC0wLjA3LDAtMC4wNywwLjA3YzAsMCwwLDAsMC4wNywwczAuMDcsMCwwLjA3LDBjMCwwLjE3LDAsMC4xNywwLDAuMTdjLTAuMDcsMC0wLjA3LDAtMC4wNywwYy0wLjA3LDAtMC4wNywwLjA3LTAuMDcsMC4wNyAgICBzMCwwLjA3LDAuMDcsMC4wN3MwLjA3LDAsMC4wNywwYzAsMC4xNywwLDAuMTcsMCwwLjE3Yy0wLjA3LDAtMC4wNywwLTAuMDcsMGMtMC4wNywwLTAuMDcsMC0wLjA3LDB2MC4wOCAgICBjLTAuNDEsMC4wNy0wLjczLDAuMzEtMC43MywwLjc5YzAsMC4zMiwwLDAuMzksMC4xLDAuODhjMCwwLjM4LDAuMzEsMC43NywwLjcsMC44NGwwLDBjMCwwLjEsMCwwLjEsMCwwLjFjMC4xNCwwLDAuMTQsMCwwLjE0LDAgICAgYzAsMC4xNCwwLDAuMTQsMCwwLjE0Yy0wLjE0LDAtMC4xNCwwLTAuMTQsMHMwLDAsMCwwLjA4bDAsMGMwLjE0LDAsMC4xNCwwLDAuMTQsMGMwLDAuMTcsMCwwLjE3LDAsMC4xN2MtMC4xNCwwLTAuMTQsMC0wLjE0LDAgICAgdjAuMDd2MC4wN2MwLjE0LDAsMC4xNCwwLDAuMTQsMGMwLDAuMTcsMCwwLjE3LDAsMC4xN2MtMC4xNCwwLTAuMTQsMC0wLjE0LDBsMCwwYzAsMC4wNywwLDAuMDcsMCwwLjA3YzAuMTQsMCwwLjE0LDAsMC4xNCwwICAgIGMwLDAuMTcsMCwwLjE3LDAsMC4xN2MtMC4xNCwwLTAuMTQsMC0wLjE0LDBzMCwwLDAsMC4wN2wwLDBjMC4xNCwwLDAuMTQsMCwwLjE0LDBjMCwwLjE1LDAsMC4xNSwwLDAuMTVjLTAuMTQsMC0wLjE0LDAtMC4xNCwwICAgIHYwLjF2MC4wN2MwLjE0LDAsMC4xNCwwLDAuMTQsMGMwLDAuMTcsMCwwLjE3LDAsMC4xN2MtMC4xNCwwLTAuMTQsMC0wLjE0LDBsMCwwYzAsMC4wNywwLDAuMDcsMC4wNywwLjA3czAuMDcsMCwwLjA3LDAgICAgYzAsMC4xNSwwLDAuMTUsMCwwLjE1Yy0wLjA3LDAtMC4wNywwLTAuMDcsMGMtMC4wNywwLTAuMDcsMC0wLjA3LDAuMDljMCwwLDAsMCwwLjA3LDBzMC4wNywwLDAuMDcsMGMwLDAuMDgsMCwwLjA4LDAsMC4wOCAgICBjLTAuNjIsMC0wLjYyLDAtMC42MiwwYzAsMC4yNCwwLDAuMjQsMCwwLjI0Yy0yLjksMC0yLjksMC0yLjksMGMtMC4yMiwwLTAuMzksMC4wNy0wLjM5LDAuMTRjMCwwLjA4LDAsMC4wOCwwLDAuMDggICAgYzAsMC4wOSwwLjE3LDAuMTYsMC4zOSwwLjE2YzIuOS0wLjA3LDIuOS0wLjA3LDIuOS0wLjA3YzAsMC4xNSwwLDAuMTUsMCwwLjE1YzAuNTUsMC43LDAuNTUsMC43LDAuNTUsMC43YzEuNSwwLDEuNSwwLDEuNSwwICAgIGMwLjUzLTAuNywwLjUzLTAuNywwLjUzLTAuN2MwLTAuMTUsMC0wLjE1LDAtMC4xNWMyLjgzLDAsMi44MywwLDIuODMsMGMwLjI0LTAuMDksMC40OC0wLjA5LDAuNDgtMC4xNyAgICBjLTAuMDktMC4xNC0wLjA5LTAuMTQtMC4wOS0wLjE0YzAtMC4xLTAuMTUtMC4xLTAuMzktMC4xYy0yLjgzLDAtMi44MywwLTIuODMsMGMwLTAuMTQsMC0wLjE0LDAtMC4xNGMtMC43NywwLTAuNzcsMC0wLjc3LDAgICAgYzAtMC4wOCwwLTAuMDgsMC0wLjA4YzAuMTQsMCwwLjE0LDAsMC4xNCwwczAuMSwwLDAuMS0wLjA5aC0wLjFjLTAuMjEsMC0wLjIxLDAtMC4yMSwwYzAtMC4xNSwwLTAuMTUsMC0wLjE1ICAgIGMwLjIxLDAsMC4yMSwwLDAuMjEsMHYtMC4wN3YtMC4xYy0wLjIxLDAtMC4yMSwwLTAuMjEsMGMwLTAuMTQsMC0wLjE0LDAtMC4xNGMwLjIxLDAsMC4yMSwwLDAuMjEsMGwwLDBjMC0wLjEsMC0wLjEsMC0wLjEgICAgYy0wLjIxLDAtMC4yMSwwLTAuMjEsMGMwLTAuMTUsMC0wLjE1LDAtMC4xNWMwLjIxLDAsMC4yMSwwLDAuMjEsMHMwLDAsMC0wLjA3bDAsMGMtMC4yMSwwLTAuMjEsMC0wLjIxLDBjMC0wLjE3LDAtMC4xNywwLTAuMTcgICAgYzAuMjEsMCwwLjIxLDAsMC4yMSwwdi0wLjA3di0wLjA3Yy0wLjIxLDAtMC4yMSwwLTAuMjEsMGMwLTAuMSwwLTAuMSwwLTAuMWMwLjIxLTAuMDcsMC4yMS0wLjA3LDAuMjEtMC4wN2wwLDAgICAgYzAtMC4wNywwLTAuMDcsMC0wLjA3Yy0wLjIxLDAtMC4yMSwwLTAuMjEsMGMwLTAuMTcsMC0wLjE3LDAtMC4xN2MwLjIxLDAsMC4yMSwwLDAuMjEsMGwwLDBjMC0wLjA4LDAtMC4wOCwwLTAuMDggICAgYy0wLjIxLDAtMC4yMSwwLTAuMjEsMGMwLTAuMTQsMC0wLjE0LDAtMC4xNGMwLjIxLDAsMC4yMSwwLDAuMjEsMHMwLDAsMC0wLjFsMCwwYzEuMzYsMCwzLjYzLTAuMDcsNy4zOC0wLjA3ICAgIEMyMi44MiwxOC4wNSwyMi44MiwxNC4yNSwyMi44MiwxMy4zMXoiLz4mI3hhOwk8L2c+JiN4YTs8L2c+JiN4YTs8L3N2Zz4=;" vertex="1" parent="1">
          <mxGeometry x="506.77" y="2714.25" width="48.04" height="45.75" as="geometry" />
        </mxCell>
        <mxCell id="RRRtHtHykmKqdJRV3gpE-532" value="Media Services" style="aspect=fixed;html=1;points=[];align=center;image;fontSize=12;image=img/lib/mscae/Media_Services.svg;" vertex="1" parent="1">
          <mxGeometry x="616.1500000000001" y="2714.25" width="40.26" height="45.75" as="geometry" />
        </mxCell>
        <mxCell id="RRRtHtHykmKqdJRV3gpE-568" style="edgeStyle=orthogonalEdgeStyle;rounded=0;orthogonalLoop=1;jettySize=auto;html=1;entryX=0;entryY=0.5;entryDx=0;entryDy=0;strokeColor=#808080;" edge="1" parent="1" source="RRRtHtHykmKqdJRV3gpE-534" target="RRRtHtHykmKqdJRV3gpE-524">
          <mxGeometry relative="1" as="geometry" />
        </mxCell>
        <mxCell id="RRRtHtHykmKqdJRV3gpE-534" value="" style="aspect=fixed;html=1;points=[];align=center;image;fontSize=12;image=img/lib/mscae/Person.svg;" vertex="1" parent="1">
          <mxGeometry x="274" y="2715" width="37" height="50" as="geometry" />
        </mxCell>
        <mxCell id="RRRtHtHykmKqdJRV3gpE-537" value="Cache" style="aspect=fixed;html=1;points=[];align=center;image;fontSize=12;image=img/lib/mscae/Azure_Cache_for_Redis.svg;" vertex="1" parent="1">
          <mxGeometry x="861" y="2710.88" width="49.25" height="49.25" as="geometry" />
        </mxCell>
        <mxCell id="RRRtHtHykmKqdJRV3gpE-538" value="Database" style="aspect=fixed;html=1;points=[];align=center;image;fontSize=12;image=img/lib/mscae/Database_General.svg;" vertex="1" parent="1">
          <mxGeometry x="932" y="2710.75" width="37.57" height="49.43" as="geometry" />
        </mxCell>
        <mxCell id="RRRtHtHykmKqdJRV3gpE-539" value="Kubernetes Services" style="aspect=fixed;html=1;points=[];align=center;image;fontSize=12;image=img/lib/mscae/Kubernetes_Services.svg;" vertex="1" parent="1">
          <mxGeometry x="1001.69" y="2707" width="71.62" height="53" as="geometry" />
        </mxCell>
        <mxCell id="RRRtHtHykmKqdJRV3gpE-542" value="Media Player&lt;br&gt;in Mobile App" style="aspect=fixed;html=1;perimeter=none;align=center;shadow=0;dashed=0;image;fontSize=12;image=img/lib/mscae/App_Service_Mobile_App.svg;" vertex="1" parent="1">
          <mxGeometry x="1302" y="2893.5" width="34.5" height="50" as="geometry" />
        </mxCell>
        <mxCell id="RRRtHtHykmKqdJRV3gpE-543" value="Gateway" style="aspect=fixed;html=1;points=[];align=center;image;fontSize=12;image=img/lib/mscae/Application_Gateway.svg;" vertex="1" parent="1">
          <mxGeometry x="792.5" y="2709.37" width="51.5" height="51.5" as="geometry" />
        </mxCell>
        <mxCell id="RRRtHtHykmKqdJRV3gpE-548" value="Data Catalog" style="aspect=fixed;html=1;points=[];align=center;image;fontSize=12;image=img/lib/mscae/Data_Catalog.svg;" vertex="1" parent="1">
          <mxGeometry x="504.3499999999999" y="2937.25" width="47" height="50" as="geometry" />
        </mxCell>
        <mxCell id="RRRtHtHykmKqdJRV3gpE-549" value="static resources" style="aspect=fixed;html=1;points=[];align=center;image;fontSize=12;image=img/lib/mscae/Elastic_Database_Pools.svg;" vertex="1" parent="1">
          <mxGeometry x="617.1499999999999" y="2937.25" width="50" height="50" as="geometry" />
        </mxCell>
        <mxCell id="RRRtHtHykmKqdJRV3gpE-557" style="edgeStyle=orthogonalEdgeStyle;rounded=0;orthogonalLoop=1;jettySize=auto;html=1;strokeColor=#808080;" edge="1" parent="1" source="RRRtHtHykmKqdJRV3gpE-552" target="RRRtHtHykmKqdJRV3gpE-551">
          <mxGeometry relative="1" as="geometry">
            <Array as="points">
              <mxPoint x="843" y="2870" />
              <mxPoint x="843" y="2870" />
            </Array>
          </mxGeometry>
        </mxCell>
        <mxCell id="RRRtHtHykmKqdJRV3gpE-552" value="Manage&lt;br&gt;Monitoring" style="aspect=fixed;html=1;perimeter=none;align=center;shadow=0;dashed=0;image;fontSize=12;image=img/lib/mscae/TaskVM.svg;" vertex="1" parent="1">
          <mxGeometry x="889" y="2892" width="63" height="60" as="geometry" />
        </mxCell>
        <mxCell id="RRRtHtHykmKqdJRV3gpE-576" style="edgeStyle=orthogonalEdgeStyle;rounded=0;orthogonalLoop=1;jettySize=auto;html=1;entryX=0.4;entryY=0.065;entryDx=0;entryDy=0;entryPerimeter=0;strokeColor=#808080;" edge="1" parent="1" source="RRRtHtHykmKqdJRV3gpE-547" target="RRRtHtHykmKqdJRV3gpE-544">
          <mxGeometry relative="1" as="geometry">
            <Array as="points">
              <mxPoint x="1237" y="2820" />
              <mxPoint x="1152" y="2820" />
            </Array>
          </mxGeometry>
        </mxCell>
        <mxCell id="RRRtHtHykmKqdJRV3gpE-577" style="edgeStyle=orthogonalEdgeStyle;rounded=0;orthogonalLoop=1;jettySize=auto;html=1;entryX=0.473;entryY=0.011;entryDx=0;entryDy=0;entryPerimeter=0;strokeColor=#808080;" edge="1" parent="1" source="RRRtHtHykmKqdJRV3gpE-547" target="RRRtHtHykmKqdJRV3gpE-542">
          <mxGeometry relative="1" as="geometry">
            <Array as="points">
              <mxPoint x="1237" y="2820" />
              <mxPoint x="1318" y="2820" />
            </Array>
          </mxGeometry>
        </mxCell>
        <mxCell id="RRRtHtHykmKqdJRV3gpE-547" value="CDN" style="aspect=fixed;html=1;perimeter=none;align=center;shadow=0;dashed=0;image;fontSize=12;image=img/lib/mscae/Content_Delivery_Network.svg;" vertex="1" parent="1">
          <mxGeometry x="1192" y="2716.37" width="90.55" height="41.5" as="geometry" />
        </mxCell>
        <mxCell id="RRRtHtHykmKqdJRV3gpE-578" style="edgeStyle=orthogonalEdgeStyle;rounded=0;orthogonalLoop=1;jettySize=auto;html=1;strokeColor=#808080;" edge="1" parent="1" source="RRRtHtHykmKqdJRV3gpE-573">
          <mxGeometry relative="1" as="geometry">
            <mxPoint x="922" y="3000" as="targetPoint" />
          </mxGeometry>
        </mxCell>
        <mxCell id="RRRtHtHykmKqdJRV3gpE-579" style="edgeStyle=orthogonalEdgeStyle;rounded=0;orthogonalLoop=1;jettySize=auto;html=1;entryX=0.463;entryY=0.98;entryDx=0;entryDy=0;entryPerimeter=0;strokeColor=#808080;" edge="1" parent="1" source="RRRtHtHykmKqdJRV3gpE-573" target="RRRtHtHykmKqdJRV3gpE-544">
          <mxGeometry relative="1" as="geometry" />
        </mxCell>
        <mxCell id="RRRtHtHykmKqdJRV3gpE-580" style="edgeStyle=orthogonalEdgeStyle;rounded=0;orthogonalLoop=1;jettySize=auto;html=1;entryX=0.501;entryY=0.991;entryDx=0;entryDy=0;entryPerimeter=0;strokeColor=#808080;" edge="1" parent="1" source="RRRtHtHykmKqdJRV3gpE-573" target="RRRtHtHykmKqdJRV3gpE-542">
          <mxGeometry relative="1" as="geometry" />
        </mxCell>
        <mxCell id="RRRtHtHykmKqdJRV3gpE-573" value="License / Key" style="aspect=fixed;html=1;perimeter=none;align=center;shadow=0;dashed=0;image;fontSize=12;image=img/lib/mscae/KeyVault.svg;spacingTop=3;" vertex="1" parent="1">
          <mxGeometry x="1017" y="3020" width="45" height="50" as="geometry" />
        </mxCell>
        <mxCell id="RRRtHtHykmKqdJRV3gpE-544" value="Media&lt;br&gt;Player in Browser" style="aspect=fixed;html=1;perimeter=none;align=center;shadow=0;dashed=0;image;fontSize=12;image=img/lib/mscae/Browser.svg;spacingTop=5;" vertex="1" parent="1">
          <mxGeometry x="1132" y="2897.25" width="50" height="42.5" as="geometry" />
        </mxCell>
        <mxCell id="RRRtHtHykmKqdJRV3gpE-583" style="edgeStyle=orthogonalEdgeStyle;rounded=0;orthogonalLoop=1;jettySize=auto;html=1;entryX=0.556;entryY=-0.063;entryDx=0;entryDy=0;entryPerimeter=0;strokeColor=#808080;" edge="1" parent="1" source="RRRtHtHykmKqdJRV3gpE-581" target="RRRtHtHykmKqdJRV3gpE-573">
          <mxGeometry relative="1" as="geometry" />
        </mxCell>
        <mxCell id="RRRtHtHykmKqdJRV3gpE-581" value="" style="aspect=fixed;html=1;points=[];align=center;image;fontSize=12;image=img/lib/mscae/Two_User_Icon.svg;" vertex="1" parent="1">
          <mxGeometry x="1017" y="2902.25" width="50" height="50" as="geometry" />
        </mxCell>
      </root>
    </mxGraphModel>
  </diagram>
</mxfile>
